HIERARCHY
ROOT Hips
{
 OFFSET 0.000000 0.000000 0.000000
 CHANNELS 6 Xposition Yposition Zposition Yrotation Xrotation Zrotation
 JOINT Chest
 {
  OFFSET 0.000000 9.585900 0.002600
  CHANNELS 3 Yrotation Xrotation Zrotation
  JOINT Chest2
  {
   OFFSET 0.000000 9.601200 -0.005300
   CHANNELS 3 Yrotation Xrotation Zrotation
   JOINT Chest3
   {
    OFFSET 0.000000 9.561800 0.000000
    CHANNELS 3 Yrotation Xrotation Zrotation
    JOINT Chest4
    {
     OFFSET 0.000000 9.552100 0.000000
     CHANNELS 3 Yrotation Xrotation Zrotation
     JOINT Neck
     {
      OFFSET 0.000000 14.453000 0.000000
      CHANNELS 3 Yrotation Xrotation Zrotation
      JOINT Head
      {
       OFFSET 0.000000 8.936500 -0.011300
       CHANNELS 3 Yrotation Xrotation Zrotation
       End Site
       {
        OFFSET 0.000000 17.073600 -0.006000
       }
      }
     }
     JOINT RightCollar
     {
      OFFSET -2.921100 9.558500 0.000000
      CHANNELS 3 Yrotation Xrotation Zrotation
      JOINT RightShoulder
      {
       OFFSET -13.519700 0.000000 0.000000
       CHANNELS 3 Yrotation Xrotation Zrotation
       JOINT RightElbow
       {
        OFFSET 0.000000 -29.696600 0.000000
        CHANNELS 3 Yrotation Xrotation Zrotation
        JOINT RightWrist
        {
         OFFSET 0.000000 -24.004700 0.000000
         CHANNELS 3 Yrotation Xrotation Zrotation
         End Site
         {
          OFFSET 0.000000 -17.728500 0.000000
         }
        }
       }
      }
     }
     JOINT LeftCollar
     {
      OFFSET 2.921100 9.558500 0.000000
      CHANNELS 3 Yrotation Xrotation Zrotation
      JOINT LeftShoulder
      {
       OFFSET 13.519700 0.000000 0.000000
       CHANNELS 3 Yrotation Xrotation Zrotation
       JOINT LeftElbow
       {
        OFFSET 0.000000 -29.696600 0.000000
        CHANNELS 3 Yrotation Xrotation Zrotation
        JOINT LeftWrist
        {
         OFFSET 0.000000 -24.004700 0.000000
         CHANNELS 3 Yrotation Xrotation Zrotation
         End Site
         {
          OFFSET 0.000000 -17.728500 0.000000
         }
        }
       }
      }
     }
    }
   }
  }
 }
 JOINT RightHip
 {
  OFFSET -7.771700 -0.012900 -0.001300
  CHANNELS 3 Yrotation Xrotation Zrotation
  JOINT RightKnee
  {
   OFFSET 0.000000 -40.869800 0.001200
   CHANNELS 3 Yrotation Xrotation Zrotation
   JOINT RightAnkle
   {
    OFFSET 0.000000 -39.717900 0.002100
    CHANNELS 3 Yrotation Xrotation Zrotation
    JOINT RightToe
    {
     OFFSET 0.000000 -4.965400 11.033500
     CHANNELS 3 Yrotation Xrotation Zrotation
     End Site
     {
      OFFSET 0.000000 -1.423100 5.872300
     }
    }
   }
  }
 }
 JOINT LeftHip
 {
  OFFSET 7.771700 -0.012900 -0.001300
  CHANNELS 3 Yrotation Xrotation Zrotation
  JOINT LeftKnee
  {
   OFFSET 0.000000 -40.869800 0.001200
   CHANNELS 3 Yrotation Xrotation Zrotation
   JOINT LeftAnkle
   {
    OFFSET 0.000000 -39.717900 0.002100
    CHANNELS 3 Yrotation Xrotation Zrotation
    JOINT LeftToe
    {
     OFFSET 0.000000 -4.965400 11.033500
     CHANNELS 3 Yrotation Xrotation Zrotation
     End Site
     {
      OFFSET 0.000000 -1.423100 5.872300
     }
    }
   }
  }
 }
}
MOTION
Frames: 9
Frame Time: 0.008333
0.000000 85.388000 0.000000 0.000000 -5.767877 0.000000 0.000000 11.653817 0.000000 0.000000 -5.885947 0.000000 0.000000 -0.000000 0.000000 0.000000 -0.000000 0.000000 0.000000 12.528835 0.000000 0.000000 0.711642 0.000000 0.000000 -0.000000 0.000000 0.000000 0.000000 -90.000000 0.000000 -2.309062 0.000000 0.000000 2.309062 0.000000 0.000000 -0.000000 0.000000 0.000000 -0.000000 90.000000 0.000000 -2.309062 0.000000 0.000000 2.309062 0.000000 0.000000 8.520406 0.000000 0.000000 1.905762 0.000000 -0.000000 -4.658285 0.000000 0.000000 -0.000000 0.000000 0.000000 8.520406 0.000000 0.000000 1.905762 0.000000 -0.000000 -4.658285 0.000000 0.000000 -0.000000 0.000000
-21.604381 52.892464 6.863637 -178.267834 -18.465586 -2.146648 0.388096 16.567354 0.625073 0.036210 1.695786 0.067830 0.056101 2.814658 0.108480 0.348068 14.616708 0.594528 -5.479855 20.392223 0.434596 -6.010147 -3.890726 1.729879 0.378353 0.104247 2.867141 -1.512815 -8.738797 -4.912564 -84.415500 -78.708268 111.594724 -6.591989 -13.187903 -13.101528 -6.785441 -0.061761 -0.118226 5.625230 -9.830915 9.023126 92.073763 -68.937549 -124.607371 -0.154147 -12.302940 7.377581 1.897051 -59.985820 11.229111 -164.090785 86.089717 -165.500092 -13.523935 -22.320820 12.980199 0.006488 -0.005692 0.019596 4.406590 -58.752663 -3.104135 120.931813 77.653340 119.265603 -6.439517 -19.550886 -1.467836 -0.000657 0.053196 -0.006115
-21.604447 52.892012 6.862095 -178.272625 -18.471813 -2.152179 0.385861 16.547948 0.620578 0.038067 1.695685 0.069836 0.055677 2.809523 0.106990 0.354834 14.636755 0.599296 -5.501057 20.466905 0.431456 -6.020144 -3.768434 1.739367 0.388253 0.101053 2.868766 -1.483979 -8.767107 -4.925962 -84.244472 -78.703969 111.394995 -6.588734 -13.182165 -13.103033 -6.785139 -0.060259 -0.122866 5.602369 -9.885081 9.027614 91.920200 -68.941640 -124.438889 -0.127228 -12.351421 7.260898 1.891058 -59.974694 11.196954 -164.800250 86.094385 -166.256347 -12.992710 -22.373335 12.886117 0.024051 -0.032543 -0.007055 4.398054 -58.747786 -3.090712 120.938633 77.649150 119.271085 -6.439270 -19.551950 -1.462144 -0.000950 0.053580 -0.008781
-21.605916 52.891268 6.860649 -178.271691 -18.477202 -2.151875 0.374257 16.529440 0.604531 0.031673 1.674542 0.061171 0.053922 2.798531 0.102779 0.366210 14.653739 0.606019 -5.464753 20.573020 0.445877 -5.977048 -3.645294 1.752320 0.412900 0.109221 2.879242 -1.478096 -8.759756 -4.930088 -84.189794 -78.715319 111.341273 -6.589879 -13.175178 -13.115243 -6.790543 -0.060359 -0.152508 5.607024 -9.870848 9.071322 91.915915 -68.929052 -124.462564 -0.115415 -12.378039 7.183134 1.904170 -59.970587 11.189711 -164.831094 86.092747 -166.279189 -12.855291 -22.390114 12.849059 0.023444 -0.032723 -0.011490 4.401721 -58.742455 -3.093289 120.943722 77.649548 119.276880 -6.437777 -19.552696 -1.458140 0.000708 0.054701 -0.009929
-21.608640 52.890024 6.859912 -178.276700 -18.478808 -2.142409 0.367191 16.510144 0.578464 0.030880 1.670740 0.059453 0.052626 2.792479 0.099938 0.362425 14.642739 0.598395 -5.367388 20.681510 0.477434 -5.873168 -3.522254 1.769292 0.449467 0.079816 2.883183 -1.454285 -8.757650 -4.937807 -83.929568 -78.725007 111.053552 -6.537600 -13.143469 -13.081392 -6.779702 -0.034733 -0.158109 5.604027 -9.902806 9.090610 91.963319 -68.914252 -124.582418 -0.092555 -12.357824 7.199437 1.924724 -59.974037 11.197581 -164.505202 86.088231 -165.927595 -12.914375 -22.387461 12.840827 0.014932 -0.022194 -0.005198 4.420569 -58.739165 -3.105784 120.940969 77.647865 119.267415 -6.443013 -19.554687 -1.449801 -0.000201 0.056168 -0.010322
-21.611406 52.889117 6.857503 -178.276420 -18.491757 -2.134633 0.356105 16.499702 0.549380 0.035009 1.681121 0.068223 0.046119 2.771673 0.086462 0.352450 14.633538 0.586454 -5.201654 20.790831 0.526838 -5.705648 -3.398999 1.789254 0.472781 0.093283 2.895562 -1.409865 -8.803109 -4.949361 -83.820874 -78.773103 110.930867 -6.544271 -13.103944 -13.083640 -6.761899 -0.005186 -0.158045 5.588508 -9.977791 9.101857 91.797124 -68.898693 -124.439637 -0.071764 -12.364840 7.183602 1.950874 -59.967907 11.215585 -163.894895 86.079351 -165.265978 -13.139667 -22.370590 12.858376 -0.010512 -0.007038 0.004825 4.431968 -58.724730 -3.116396 120.955204 77.637877 119.273307 -6.448355 -19.560912 -1.439168 -0.003301 0.056734 -0.011246
-21.613398 52.887767 6.855748 -178.281556 -18.502360 -2.129256 0.355672 16.497837 0.534574 0.035173 1.679218 0.066970 0.037626 2.749340 0.073355 0.322695 14.568538 0.529709 -4.937127 20.966581 0.627859 -5.470593 -3.270117 1.809996 0.509727 0.176016 2.942698 -1.371933 -8.848636 -4.954346 -83.756716 -78.808779 110.857123 -6.552208 -13.069564 -13.077326 -6.729996 0.090619 -0.124642 5.593051 -10.029814 9.112220 91.651759 -68.856616 -124.337023 -0.046699 -12.366903 7.173401 1.974778 -59.963730 11.225089 -163.628099 86.075355 -164.970550 -13.242515 -22.362858 12.860263 -0.019102 -0.002264 0.009351 4.441643 -58.714001 -3.119589 120.971581 77.632489 119.283510 -6.447705 -19.565025 -1.436520 -0.005526 0.057558 -0.008297
-21.612690 52.886085 6.854487 -178.289844 -18.512019 -2.138257 0.362195 16.494627 0.536064 0.014772 1.630141 0.034461 0.052889 2.782165 0.096412 0.313771 14.545344 0.509825 -4.638849 21.105141 0.710619 -5.164464 -3.125743 1.829751 0.517516 0.220001 2.948796 -1.335165 -8.906323 -4.963109 -83.695180 -78.825637 110.794494 -6.549685 -13.040129 -13.067329 -6.715292 0.140284 -0.110769 5.602633 -10.073696 9.110571 91.498943 -68.787255 -124.240510 -0.014636 -12.359162 7.169900 1.991194 -59.957096 11.217933 -163.843695 86.074331 -165.203558 -13.022488 -22.380161 12.823666 -0.001277 -0.015314 0.003856 4.429662 -58.709768 -3.088225 121.009571 77.628900 119.316393 -6.446765 -19.562965 -1.436285 -0.004199 0.056034 -0.003851
-21.610566 52.883771 6.854542 -178.291535 -18.515988 -2.156709 0.352638 16.469591 0.530498 0.024743 1.643205 0.044803 0.055406 2.788153 0.100390 0.295354 14.508349 0.480864 -4.274421 21.260945 0.806377 -4.789994 -2.963654 1.848199 0.530912 0.265213 2.964619 -1.318222 -8.937804 -4.968822 -83.842357 -78.854898 110.957347 -6.548433 -13.013920 -13.054610 -6.703011 0.185203 -0.099724 5.619042 -10.115362 9.106267 91.309664 -68.699392 -124.115462 0.022590 -12.347651 7.175092 1.972311 -59.953738 11.230681 -164.147370 86.077127 -165.532590 -12.758269 -22.402210 12.776861 0.007444 -0.028723 -0.004499 4.387014 -58.716298 -3.021899 121.085423 77.632916 119.382391 -6.462903 -19.559231 -1.433742 0.008577 0.052994 0.001661
